# xmcd CD database file
#
# Track frame offsets:
#	150
#	15017
#	27377
#	50414
#	61309
#	77704
#	91666
#	110281
#	129697
#	141307
#	155264
#	178373
#	199051
#	218051
#	231981
#	250896
#	264386
#	278854
#	291007
#	308770
#
# Disc length: 4294 seconds
#
# Revision: 0
# Processed by: cddbd v1.4PL0 Copyright (c) Steve Scherf et al.
# Submitted via: CDex 1.51
#
DISCID=1610c414
DTITLE=Norah Jones - the long game is over
DYEAR=2003
DGENRE=Jazz
TTITLE0=Come Away With Me
TTITLE1=The Long Day Is Over
TTITLE2=New York City
TTITLE3=Seven Years
TTITLE4=Cold Cold Heart
TTITLE5=Don't Know Why
TTITLE6=Strange Transmissions
TTITLE7=Deceptively Yours
TTITLE8=Turn Me On
TTITLE9=Lonestar
TTITLE10=Heart Of Mine
TTITLE11=All Your Love
TTITLE12=I've Got To See You Again
TTITLE13=One Flight Down
TTITLE14=Nightingale
TTITLE15=The Nearness Of You
TTITLE16=Things You Don't Have To Do
TTITLE17=Painter Song
TTITLE18=Shoot The Moon
TTITLE19=Feelin' The Same Way
EXTD=YEAR: 2003
EXTT0=
EXTT1=
EXTT2=
EXTT3=
EXTT4=
EXTT5=
EXTT6=
EXTT7=
EXTT8=
EXTT9=
EXTT10=
EXTT11=
EXTT12=
EXTT13=
EXTT14=
EXTT15=
EXTT16=
EXTT17=
EXTT18=
EXTT19=
PLAYORDER=
